<svg xmlns="http://www.w3.org/2000/svg" xmlns:xlink="http://www.w3.org/1999/xlink" width="27.4" height="17.8" viewBox="0 0 27.4 17.8"><defs><radialGradient id="a" cx="0.124" cy="0.829" r="0.5" gradientUnits="objectBoundingBox"><stop offset="0" stop-color="#5e53f2"/><stop offset="1" stop-color="#6f44d9"/></radialGradient></defs><path d="M2.075,0V-17.5h3.35l7.45,12.35H11.1L18.425-17.5H21.75l-3.075,5.825L12.825-1.85H11L5.025-11.675h.85V0Zm21.1.3a7.928,7.928,0,0,1-3.262-.663A6.237,6.237,0,0,1,17.475-2.25l2.25-2.7A5.687,5.687,0,0,0,21.25-3.513a3.256,3.256,0,0,0,1.725.488q2.475,0,2.475-2.9V-14.25L25.3-17.5h4.175V-6.15a6.594,6.594,0,0,1-1.6,4.85A6.371,6.371,0,0,1,23.175.3Z" transform="translate(-2.075 17.5)" fill="url(#a)"/></svg>